<svg width="96" height="48" viewBox="0 0 967 539" fill="none" xmlns="http://www.w3.org/2000/svg">
<style>@media (prefers-color-scheme: dark) { #w { stroke: #FFB3AD } #wf { fill: white } #p { fill: #FFB3AD } #o { fill: #68000A } }</style>
<path d="M593 159L687 97V375" stroke="black" stroke-width="15" id="w"/>
<path d="M544 161L450 99V377" stroke="black" stroke-width="15" id="w" />
<path d="M744 236.614C744 236.614 693.112 309.291 643.077 329.948C587.445 352.915 542.991 355.095 488.362 329.948C407.285 292.628 390 127.806 390 127.806C390 127.806 509.742 121.571 581.088 143.778C651.297 165.631 744 236.614 744 236.614Z" fill="#c0001c" id="p" />
<ellipse cx="295.07" cy="200.398" rx="279.9" ry="62.3598" transform="rotate(-8.57525 295.07 200.398)" fill="#c0001c" id="p" />
<circle cx="816" cy="228" r="81" fill="#c0001c" id="p" />
<path d="M953 338C955.929 340.929 960.678 340.929 963.607 338C966.535 335.071 966.535 330.322 963.607 327.393L953 338ZM876 261L953 338L963.607 327.393L886.607 250.393L876 261Z" fill="#c0001c" id="p"/>
<ellipse cx="798.971" cy="238.194" rx="39.6063" ry="59.3411" transform="rotate(-30 798.971 238.194)" fill="black" id="o"/>
<path d="M23.4815 87.8031C22.9796 166.133 427.64 175.42 427.64 175.42C427.64 175.42 157.927 -28.2588 61.4429 32.1844C33.241 49.8518 23.6345 63.9265 23.4815 87.8031Z" fill="black" id="wf"/>
<path d="M11.002 247.09C39.2927 344.17 425.65 221.104 425.65 221.104C425.65 221.104 95.6109 58.785 26.5011 165.652C6.30059 196.889 2.37841 217.497 11.002 247.09Z" fill="black" id="wf"/>
<path d="M492 323L398 261V539" stroke="black" stroke-width="15" id="w" />
<path d="M645 321L739 259V537" stroke="black" stroke-width="15" id="w" />
</svg>
